<svg width="116" height="37" viewBox="0 0 116 37" fill="none" xmlns="http://www.w3.org/2000/svg">
<g clip-path="url(#clip0)">
<path d="M4.38257 11.2387C3.51396 11.6182 2.76379 12.1663 2.09258 12.8831C1.42138 13.5998 0.908101 14.4009 0.552757 15.3285C0.197413 16.2561 0 17.268 0 18.322C0 19.3761 0.197413 20.388 0.552757 21.3156C0.908101 22.2432 1.46086 23.0443 2.09258 23.761C2.76379 24.4356 3.51396 24.9838 4.38257 25.3632C5.25119 25.7427 6.19878 25.9535 7.14636 25.9535H12.0027C12.437 25.9535 12.8319 26.0378 13.1872 26.2065C13.582 26.3751 13.8979 26.6281 14.1743 26.9232C14.4506 27.2605 14.6875 27.5978 14.8455 28.0195C15.0034 28.4411 15.0824 28.8627 15.0824 29.2843C15.0824 29.7481 15.0034 30.1698 14.8455 30.5492C14.6875 30.9709 14.4506 31.3082 14.1743 31.6033C13.8979 31.8984 13.582 32.1514 13.1872 32.3201C12.7924 32.4887 12.3976 32.573 12.0027 32.573H2.01361C0.908101 32.573 0 33.5428 0 34.7233C0 35.9039 0.908101 36.8736 2.01361 36.8736H12.0027C12.9503 36.8736 13.8979 36.6628 14.7665 36.2834C15.6351 35.9039 16.3853 35.3558 17.0565 34.639C17.7277 33.9222 18.241 33.1212 18.5963 32.1936C18.9517 31.266 19.1491 30.2541 19.1491 29.2422C19.1491 28.1881 18.9517 27.1762 18.5963 26.2486C18.241 25.3211 17.7277 24.52 17.0565 23.8032C16.3853 23.0864 15.6351 22.5383 14.7665 22.1589C13.8979 21.7794 12.9503 21.5686 12.0027 21.5686H7.14636C6.71205 21.5686 6.31722 21.4843 5.96188 21.3156C5.56705 21.1469 5.25119 20.894 4.97481 20.5988C4.69843 20.3037 4.46154 19.9664 4.30361 19.5448C4.14568 19.1231 4.06671 18.7015 4.06671 18.2799C4.06671 17.8161 4.14568 17.3945 4.30361 17.015C4.46154 16.5934 4.69843 16.2561 4.97481 15.9188C5.25119 15.6236 5.56705 15.3707 5.96188 15.202C6.35671 15.0334 6.75153 14.949 7.14636 14.949H17.1355C18.241 14.949 19.1491 13.9793 19.1491 12.7987C19.1491 11.6182 18.241 10.6484 17.1355 10.6484H7.14636C6.19878 10.6484 5.25119 10.8593 4.38257 11.2387Z" fill="white"/>
<path d="M111.894 36.9578H113.197C114.697 36.9578 115.921 35.6507 115.921 34.0486V24.9836V24.9414C115.961 24.6041 115.961 24.2247 115.961 23.8874C115.961 22.0744 115.645 20.3457 114.974 18.7435C114.342 17.1413 113.434 15.75 112.328 14.5694C111.223 13.3888 109.88 12.4191 108.42 11.7445C106.919 11.0699 105.301 10.6904 103.603 10.6904C101.905 10.6904 100.286 11.0277 98.8254 11.7445C97.3645 12.4191 96.0616 13.3888 94.9166 14.5694C93.8111 15.75 92.903 17.1835 92.2713 18.7435C91.6395 20.3457 91.2842 22.0744 91.2842 23.8874C91.2842 25.7004 91.6001 27.429 92.2713 28.989C92.903 30.5491 93.8111 31.9404 94.9166 33.1632C96.0221 34.3437 97.325 35.3134 98.8254 35.9881C100.326 36.6627 101.905 37.0421 103.603 37.0421H111.894V36.9578ZM103.642 32.5729C102.537 32.5729 101.471 32.3621 100.484 31.8983C99.4966 31.4345 98.5885 30.802 97.8778 30.0009C97.1276 29.1999 96.5354 28.2723 96.1011 27.2182C95.6668 26.1641 95.4693 25.0257 95.4693 23.8452C95.4693 22.6646 95.7062 21.4841 96.1011 20.43C96.5354 19.3338 97.1276 18.4062 97.8778 17.6051C98.628 16.804 99.4966 16.1716 100.484 15.7078C101.471 15.244 102.537 15.0332 103.642 15.0332C104.748 15.0332 105.853 15.2862 106.84 15.7078C107.867 16.1716 108.735 16.804 109.486 17.6051C110.236 18.4062 110.828 19.3338 111.262 20.43C111.697 21.4841 111.894 22.6646 111.894 23.8452C111.894 25.0257 111.697 26.1641 111.262 27.2182C110.828 28.2723 110.236 29.242 109.486 30.0009C108.735 30.802 107.867 31.4345 106.84 31.8983C105.853 32.3621 104.787 32.5729 103.642 32.5729Z" fill="white"/>
<path d="M33.9548 10.606C27.2427 10.606 21.7546 16.5087 21.4783 23.8872V34.8073C21.4783 35.9879 22.3864 36.9576 23.4919 36.9576H23.7683C24.8738 36.9576 25.7819 35.9879 25.7819 34.8073V24.4353C25.7819 19.3758 29.4538 15.2439 33.9153 15.2439C35.3367 15.2439 37.1134 15.8763 38.5743 16.8039C39.5218 17.3942 40.7458 17.0569 41.2986 16.0871L41.417 15.9185C42.0092 14.9487 41.7329 13.6417 40.8248 12.9671C38.8506 11.407 36.4422 10.606 33.9548 10.606Z" fill="white"/>
<path d="M58.7506 20.6829C58.4742 20.978 58.1583 21.231 57.7635 21.3997C57.3687 21.5683 56.9738 21.6527 56.579 21.6527H49.7485C48.643 21.6527 47.7349 22.6224 47.7349 23.8029C47.7349 24.9835 48.643 25.9532 49.7485 25.9532H56.579C57.5266 25.9532 58.4742 25.7424 59.3428 25.363C60.2114 24.9835 60.9616 24.4354 61.6328 23.7186C62.304 23.0019 62.8173 22.2008 63.1726 21.2732C63.528 20.3456 63.7254 19.3337 63.7254 18.3218C63.7254 17.2677 63.528 16.2558 63.1726 15.3282C62.8173 14.4007 62.304 13.5996 61.6328 12.8828C60.9616 12.166 60.2114 11.6601 59.3428 11.2385C57.2502 10.2266 52.3938 9.72061 48.3666 11.6601C46.9058 12.3347 45.6423 13.3044 44.5368 14.485C43.4313 15.6655 42.6021 17.0991 41.9704 18.6591C41.3387 20.2613 41.0228 21.99 41.0228 23.8029C41.0228 25.6159 41.3387 27.3446 41.9704 28.9468C42.6021 30.549 43.4708 31.9403 44.5368 33.1209C45.6423 34.3015 46.9058 35.2712 48.3666 35.9458C49.8275 36.6204 51.4068 36.9999 53.0651 36.9999H60.4088C61.5144 36.9999 62.4225 36.0301 62.4225 34.8496V34.8074C62.4225 33.6269 61.5144 32.6571 60.4088 32.6571H52.9861C51.8806 32.6571 50.854 32.4463 49.9064 31.9825C48.9194 31.5187 48.0902 30.8863 47.3795 30.0852C46.6689 29.2841 46.0766 28.3565 45.6818 27.2603C45.2475 26.2062 45.0501 25.0257 45.0501 23.8451C45.0501 22.6646 45.2475 21.484 45.6818 20.4299C46.1161 19.3337 46.6689 18.4061 47.3795 17.605C48.0902 16.8039 48.9589 16.1715 49.9064 15.7077C52.6702 14.4428 56.4606 14.6115 57.724 15.2439C58.0794 15.4547 58.4347 15.6655 58.7111 15.9607C58.9875 16.298 59.2244 16.6353 59.3823 17.0569C59.5402 17.4785 59.6192 17.9002 59.6192 18.3218C59.6192 18.7856 59.5402 19.2072 59.3823 19.5867C59.2244 20.0505 59.0269 20.3878 58.7506 20.6829Z" fill="white"/>
<path d="M87.4939 0.571289C86.3884 0.571289 85.4803 1.54103 85.4803 2.72159V10.4795C85.4803 10.4795 79.3605 10.4374 77.2284 10.4374C75.5307 10.4374 73.9119 10.7747 72.4115 11.4914C70.9112 12.166 69.6083 13.1358 68.5028 14.3163C67.3972 15.4969 66.4891 16.9304 65.8574 18.4904C65.2257 20.0926 64.8704 21.8213 64.8704 23.6343C64.8704 25.4473 65.1862 27.176 65.8574 28.7781C66.4891 30.3803 67.3972 31.7717 68.5028 32.9522C69.6083 34.1328 70.9507 35.1025 72.4115 35.7771C73.9119 36.4517 75.5307 36.8312 77.2284 36.8312C78.8472 36.8312 80.387 36.5361 81.8084 35.9036C83.2298 35.2712 84.4932 34.4279 85.5987 33.3317C86.6648 32.2355 87.5729 30.9706 88.2836 29.4949C88.9943 28.0192 89.3891 26.417 89.5075 24.7305V2.72159C89.547 1.54103 88.5994 0.571289 87.4939 0.571289ZM84.6906 27.2603C84.3353 28.1457 83.822 28.9889 83.1508 29.7479C81.4925 31.603 79.242 32.5306 77.031 32.4884C76.9915 32.4884 76.9126 32.4884 76.8731 32.4884C72.53 32.4884 69.016 28.736 69.016 24.0981C69.016 24.0559 69.016 24.0137 69.016 23.9716C68.9766 21.737 69.6872 19.4602 71.2665 17.6893C71.9378 16.9304 72.6879 16.3401 73.5171 15.9185C76.0045 14.5693 78.9657 15.792 80.2291 18.4483C80.4265 18.8277 80.6634 19.2072 80.9793 19.5445C81.2951 19.8818 81.6505 20.1348 82.0453 20.3034C84.5327 21.4418 85.7962 24.5619 84.6906 27.2603ZM85.2039 17.9423C83.7825 19.2072 81.3741 18.5748 81.3741 18.5748C81.3741 18.5748 81.2951 15.9607 82.7165 14.6958C84.1379 13.4309 86.5463 14.0634 86.5463 14.0634C86.5463 14.0634 86.6253 16.6774 85.2039 17.9423Z" fill="white"/>
</g>
<defs>
<clipPath id="clip0">
<rect width="116" height="36.4286" fill="white" transform="translate(0 0.571289)"/>
</clipPath>
</defs>
</svg>
