<svg width="164" height="48" viewBox="0 0 164 48" fill="none" xmlns="http://www.w3.org/2000/svg">
<path d="M6.16793 14.0392C4.94546 14.5386 3.88969 15.26 2.94505 16.2033C2.00041 17.1467 1.27804 18.201 0.777938 19.4218C0.277835 20.6426 0 21.9744 0 23.3617C0 24.749 0.277835 26.0807 0.777938 27.3016C1.27804 28.5224 2.05598 29.5767 2.94505 30.52C3.88969 31.4079 4.94546 32.1293 6.16793 32.6287C7.39041 33.1281 8.72401 33.4056 10.0576 33.4056H16.8924C17.5036 33.4056 18.0593 33.5166 18.5594 33.7385C19.115 33.9605 19.5596 34.2934 19.9485 34.6819C20.3375 35.1258 20.6709 35.5697 20.8932 36.1246C21.1154 36.6795 21.2266 37.2345 21.2266 37.7894C21.2266 38.3998 21.1154 38.9547 20.8932 39.4541C20.6709 40.009 20.3375 40.4529 19.9485 40.8414C19.5596 41.2298 19.115 41.5628 18.5594 41.7847C18.0037 42.0067 17.448 42.1177 16.8924 42.1177H2.83392C1.27804 42.1177 0 43.394 0 44.9477C0 46.5015 1.27804 47.7778 2.83392 47.7778H16.8924C18.226 47.7778 19.5596 47.5003 20.782 47.0009C22.0045 46.5015 23.0603 45.7801 24.0049 44.8367C24.9496 43.8934 25.6719 42.8391 26.172 41.6183C26.6721 40.3974 26.95 39.0657 26.95 37.7339C26.95 36.3466 26.6721 35.0148 26.172 33.794C25.6719 32.5732 24.9496 31.5189 24.0049 30.5755C23.0603 29.6322 22.0045 28.9108 20.782 28.4114C19.5596 27.912 18.226 27.6345 16.8924 27.6345H10.0576C9.44638 27.6345 8.89071 27.5235 8.39061 27.3016C7.83494 27.0796 7.39041 26.7466 7.00144 26.3582C6.61247 25.9698 6.27907 25.5258 6.0568 24.9709C5.83453 24.416 5.7234 23.8611 5.7234 23.3062C5.7234 22.6958 5.83453 22.1409 6.0568 21.6415C6.27907 21.0865 6.61247 20.6426 7.00144 20.1987C7.39041 19.8103 7.83494 19.4773 8.39061 19.2553C8.94628 19.0334 9.50195 18.9224 10.0576 18.9224H24.1161C25.6719 18.9224 26.95 17.6461 26.95 16.0923C26.95 14.5386 25.6719 13.2623 24.1161 13.2623H10.0576C8.72401 13.2623 7.39041 13.5398 6.16793 14.0392Z" fill="#453536"/>
<path d="M157.477 47.889H159.31C161.422 47.889 163.144 46.1688 163.144 44.0601V32.1295V32.074C163.2 31.6301 163.2 31.1307 163.2 30.6868C163.2 28.3006 162.756 26.0255 161.811 23.9168C160.922 21.8082 159.644 19.977 158.088 18.4232C156.532 16.8695 154.643 15.5932 152.587 14.7053C150.475 13.8175 148.197 13.318 145.808 13.318C143.418 13.318 141.14 13.762 139.084 14.7053C137.028 15.5932 135.194 16.8695 133.583 18.4232C132.027 19.977 130.749 21.8637 129.86 23.9168C128.971 26.0255 128.471 28.3006 128.471 30.6868C128.471 33.0729 128.915 35.348 129.86 37.4012C130.749 39.4544 132.027 41.2856 133.583 42.8948C135.139 44.4486 136.972 45.7249 139.084 46.6127C141.196 47.5006 143.418 48 145.808 48H157.477V47.889ZM145.863 42.1179C144.307 42.1179 142.807 41.8405 141.418 41.2301C140.029 40.6197 138.751 39.7873 137.75 38.733C136.695 37.6786 135.861 36.4578 135.25 35.0706C134.639 33.6833 134.361 32.185 134.361 30.6313C134.361 29.0775 134.694 27.5238 135.25 26.1365C135.861 24.6937 136.695 23.4729 137.75 22.4186C138.806 21.3643 140.029 20.5319 141.418 19.9215C142.807 19.3111 144.307 19.0336 145.863 19.0336C147.419 19.0336 148.975 19.3666 150.364 19.9215C151.809 20.5319 153.031 21.3643 154.087 22.4186C155.143 23.4729 155.976 24.6937 156.588 26.1365C157.199 27.5238 157.477 29.0775 157.477 30.6313C157.477 32.185 157.199 33.6833 156.588 35.0706C155.976 36.4578 155.143 37.7341 154.087 38.733C153.031 39.7873 151.809 40.6197 150.364 41.2301C148.975 41.8405 147.475 42.1179 145.863 42.1179Z" fill="#453536"/>
<path d="M47.7872 13.2067C38.3408 13.2067 30.617 20.9755 30.228 30.6864V45.0586C30.228 46.6124 31.506 47.8887 33.0619 47.8887H33.4509C35.0068 47.8887 36.2848 46.6124 36.2848 45.0586V31.4078C36.2848 24.7489 41.4525 19.3108 47.7316 19.3108C49.732 19.3108 52.2325 20.1431 54.2885 21.3639C55.6221 22.1408 57.3447 21.6969 58.1226 20.4206L58.2893 20.1986C59.1228 18.9223 58.7338 17.2021 57.4558 16.3142C54.6775 14.2611 51.2879 13.2067 47.7872 13.2067Z" fill="#453536"/>
<path d="M82.6833 26.4693C82.2943 26.8578 81.8497 27.1907 81.2941 27.4127C80.7384 27.6346 80.1827 27.7456 79.6271 27.7456H70.014C68.4581 27.7456 67.1801 29.0219 67.1801 30.5757C67.1801 32.1294 68.4581 33.4057 70.014 33.4057H79.6271C80.9607 33.4057 82.2943 33.1282 83.5168 32.6288C84.7392 32.1294 85.795 31.408 86.7396 30.4647C87.6843 29.5213 88.4067 28.467 88.9068 27.2462C89.4069 26.0254 89.6847 24.6936 89.6847 23.3618C89.6847 21.9745 89.4069 20.6428 88.9068 19.4219C88.4067 18.2011 87.6843 17.1468 86.7396 16.2035C85.795 15.2601 84.7392 14.5942 83.5168 14.0393C80.5717 12.7075 73.737 12.0416 68.0691 14.5942C66.0132 15.4821 64.235 16.7584 62.6791 18.3121C61.1233 19.8659 59.9564 21.7526 59.0673 23.8057C58.1782 25.9144 57.7337 28.1895 57.7337 30.5757C57.7337 32.9618 58.1782 35.2369 59.0673 37.3456C59.9564 39.4542 61.1788 41.2854 62.6791 42.8392C64.235 44.3929 66.0132 45.6692 68.0691 46.5571C70.1251 47.445 72.3478 47.9444 74.6816 47.9444H85.0171C86.5729 47.9444 87.851 46.6681 87.851 45.1143V45.0588C87.851 43.5051 86.5729 42.2288 85.0171 42.2288H74.5705C73.0146 42.2288 71.5699 41.9513 70.2362 41.3409C68.8471 40.7305 67.6802 39.8982 66.68 38.8438C65.6798 37.7895 64.8462 36.5687 64.2906 35.1259C63.6793 33.7387 63.4015 32.1849 63.4015 30.6311C63.4015 29.0774 63.6793 27.5236 64.2906 26.1364C64.9018 24.6936 65.6798 23.4728 66.68 22.4185C67.6802 21.3641 68.9026 20.5318 70.2362 19.9214C74.1259 18.2566 79.4604 18.4786 81.2385 19.311C81.7386 19.5884 82.2387 19.8659 82.6277 20.2543C83.0167 20.6982 83.3501 21.1422 83.5723 21.6971C83.7946 22.252 83.9057 22.8069 83.9057 23.3618C83.9057 23.9722 83.7946 24.5271 83.5723 25.0265C83.3501 25.6369 83.0722 26.0809 82.6833 26.4693Z" fill="#453536"/>
<path d="M123.137 0C121.581 0 120.303 1.2763 120.303 2.83005V13.0404C120.303 13.0404 111.69 12.9849 108.689 12.9849C106.3 12.9849 104.022 13.4288 101.91 14.3722C99.7985 15.26 97.9648 16.5363 96.409 18.0901C94.8531 19.6438 93.575 21.5305 92.686 23.5837C91.7969 25.6924 91.2968 27.9675 91.2968 30.3536C91.2968 32.7397 91.7413 35.0149 92.686 37.1235C93.575 39.2322 94.8531 41.0634 96.409 42.6172C97.9648 44.1709 99.8541 45.4472 101.91 46.3351C104.022 47.2229 106.3 47.7223 108.689 47.7223C110.967 47.7223 113.135 47.3339 115.135 46.5015C117.135 45.6692 118.914 44.5593 120.469 43.1166C121.97 41.6738 123.248 40.0091 124.248 38.0669C125.248 36.1247 125.804 34.016 125.971 31.7964V2.83005C126.026 1.2763 124.693 0 123.137 0ZM119.191 35.1259C118.691 36.2912 117.969 37.401 117.024 38.3998C114.69 40.8414 111.523 42.0622 108.411 42.0068C108.356 42.0068 108.245 42.0068 108.189 42.0068C102.077 42.0068 97.1313 37.068 97.1313 30.964C97.1313 30.9085 97.1313 30.853 97.1313 30.7976C97.0758 27.8565 98.076 24.86 100.299 22.5294C101.243 21.5305 102.299 20.7537 103.466 20.1988C106.967 18.423 111.134 20.0323 112.912 23.5282C113.19 24.0276 113.524 24.5271 113.968 24.971C114.413 25.4149 114.913 25.7479 115.468 25.9698C118.969 27.4681 120.747 31.5744 119.191 35.1259ZM119.914 22.8623C117.913 24.5271 114.524 23.6947 114.524 23.6947C114.524 23.6947 114.413 20.2542 116.413 18.5895C118.413 16.9248 121.803 17.7571 121.803 17.7571C121.803 17.7571 121.914 21.1976 119.914 22.8623Z" fill="#453536"/>
<path d="M119.191 35.1259C118.691 36.2913 117.969 37.4011 117.024 38.3999C114.69 40.8415 111.523 42.0623 108.411 42.0068C108.356 42.0068 108.245 42.0068 108.189 42.0068C102.077 42.0068 97.1312 37.0681 97.1312 30.9641C97.1312 30.9086 97.1312 30.8531 97.1312 30.7976C97.0756 27.8566 98.0758 24.8601 100.299 22.5295C101.243 21.5306 102.299 20.7538 103.466 20.1988C106.967 18.4231 111.134 20.0324 112.912 23.5283C113.19 24.0277 113.523 24.5271 113.968 24.9711C114.413 25.415 114.913 25.7479 115.468 25.9699C118.969 27.4682 120.747 31.5745 119.191 35.1259ZM119.914 22.8624C117.913 24.5271 114.524 23.6948 114.524 23.6948C114.524 23.6948 114.413 20.2543 116.413 18.5896C118.413 16.9249 121.803 17.7572 121.803 17.7572C121.803 17.7572 121.914 21.1977 119.914 22.8624Z" fill="#FFB81C"/>
</svg>
